<svg height="512" width="512" xmlns="http://www.w3.org/2000/svg"><path d="M418.571 184.201c0 94.633-52.611 165.343-130.168 165.343-26.056 0-50.541-14.087-58.933-30.079 0 0-14.011 55.586-16.963 66.317-10.447 37.907-41.178 75.829-43.553 78.946-1.673 2.16-5.34 1.481-5.735-1.378-.666-4.831-8.495-52.664.727-91.686l31.025-131.456s-7.69-15.404-7.69-38.165c0-35.764 20.717-62.446 46.519-62.446 21.942 0 32.532 16.464 32.532 36.21 0 22.071-14.037 55.051-21.291 85.604-6.056 25.597 12.835 46.479 38.073 46.479 45.702 0 76.485-58.717 76.485-128.277 0-52.866-35.599-92.449-100.382-92.449-73.162 0-118.773 54.577-118.773 115.542 0 21.024 6.207 35.854 15.926 47.31 4.446 5.274 5.085 7.395 3.462 13.449-1.176 4.446-3.807 15.124-4.93 19.364-1.597 6.119-6.554 8.29-12.07 6.04-33.695-13.756-49.406-50.681-49.406-92.167C93.429 128.18 151.225 46 265.848 46c92.116 0 152.723 66.635 152.723 138.201z" fill="#fff" fill-rule="evenodd" clip-rule="evenodd"/></svg>